<svg version="1.1" xmlns="http://www.w3.org/2000/svg" xmlns:xlink="http://www.w3.org/1999/xlink" x="0px" y="0px" viewBox="-47 170.9 500 500" style="enable-background:new -47 170.9 500 500;" xml:space="preserve">

	<path id="background" fill="#FFC83B" d="M453.1,238.5c0-37.3-30.2-67.6-67.6-67.6H20.6c-37.3,0-67.7,30.2-67.7,67.6v364.8 c0,37.3,30.2,67.6,67.6,67.6h364.8c37.3,0,67.6-30.2,67.6-67.6V238.5H453.1z"/>

	<g id="icon" fill="#FFFFFF">

		<path d="M108.8,530.6L22.7,309h60.2L139.5,472L196.2,309h57.9l-87.1,221.6H108.8z"/>
		<path d="M289.9,506.5c0,15.8-11.1,26.6-26.6,26.6S237,522.4,237,506.5c0-15.5,10.8-26.3,26.3-26.3S289.9,491,289.9,506.5z"/>
		<path d="M326.6,530.6V353.9h-40.8v-45.3H383v222H326.6z"/>

	</g>

</svg>
